HIERARCHY
ROOT root
{
	OFFSET 0.000000 0.000000 0.000000
	CHANNELS 6 Xposition Yposition Zposition Zrotation Yrotation Xrotation
	JOINT lhip
	{
		OFFSET 0.058581 -0.082280 -0.017664
		CHANNELS 3 Zrotation Yrotation Xrotation
		JOINT lknee
		{
			OFFSET 0.043451 -0.386469 0.008037
			CHANNELS 3 Zrotation Yrotation Xrotation
			JOINT lankle
			{
				OFFSET -0.014790 -0.426874 -0.037428
				CHANNELS 3 Zrotation Yrotation Xrotation
				JOINT ltoe
				{
					OFFSET 0.041054 -0.060286 0.122042
					CHANNELS 3 Zrotation Yrotation Xrotation
					End Site
					{
						OFFSET 0.000000 0.000000 0.000000
					}
				}
			}
		}
	}
	JOINT rhip
	{
		OFFSET -0.060310 -0.090513 -0.013543
		CHANNELS 3 Zrotation Yrotation Xrotation
		JOINT rknee
		{
			OFFSET -0.043257 -0.383688 -0.004843
			CHANNELS 3 Zrotation Yrotation Xrotation
			JOINT rankle
			{
				OFFSET 0.019056 -0.420046 -0.034562
				CHANNELS 3 Zrotation Yrotation Xrotation
				JOINT rtoe
				{
					OFFSET -0.034840 -0.062106 0.130323
					CHANNELS 3 Zrotation Yrotation Xrotation
					End Site
					{
						OFFSET 0.000000 0.000000 0.000000
					}
				}
			}
		}
	}
	JOINT lowerback
	{
		OFFSET 0.004439 0.124404 -0.038385
		CHANNELS 3 Zrotation Yrotation Xrotation
		JOINT upperback
		{
			OFFSET 0.004488 0.137956 0.026820
			CHANNELS 3 Zrotation Yrotation Xrotation
			JOINT chest
			{
				OFFSET -0.002265 0.056032 0.002855
				CHANNELS 3 Zrotation Yrotation Xrotation
				JOINT lowerneck
				{
					OFFSET -0.013390 0.211636 -0.033468
					CHANNELS 3 Zrotation Yrotation Xrotation
					JOINT upperneck
					{
						OFFSET 0.010113 0.088937 0.050410
						CHANNELS 3 Zrotation Yrotation Xrotation
						End Site
						{
							OFFSET 0.000000 0.000000 0.000000
						}
					}
				}
				JOINT lclavicle
				{
					OFFSET 0.071702 0.114000 -0.018898
					CHANNELS 3 Zrotation Yrotation Xrotation
					JOINT lshoulder
					{
						OFFSET 0.122921 0.045205 -0.019046
						CHANNELS 3 Zrotation Yrotation Xrotation
						JOINT lelbow
						{
							OFFSET 0.255332 -0.015649 -0.022946
							CHANNELS 3 Zrotation Yrotation Xrotation
							JOINT lwrist
							{
								OFFSET 0.265709 0.012698 -0.007375
								CHANNELS 3 Zrotation Yrotation Xrotation
								End Site
								{
									OFFSET 0.000000 0.000000 0.000000
								}
							}
						}
					}
				}
				JOINT rclavicle
				{
					OFFSET -0.082954 0.112472 -0.023707
					CHANNELS 3 Zrotation Yrotation Xrotation
					JOINT rshoulder
					{
						OFFSET -0.113228 0.046853 -0.008472
						CHANNELS 3 Zrotation Yrotation Xrotation
						JOINT relbow
						{
							OFFSET -0.260127 -0.014369 -0.031269
							CHANNELS 3 Zrotation Yrotation Xrotation
							JOINT rwrist
							{
								OFFSET -0.269108 0.006794 -0.006027
								CHANNELS 3 Zrotation Yrotation Xrotation
								End Site
								{
									OFFSET 0.000000 0.000000 0.000000
								}
							}
						}
					}
				}
			}
		}
	}
}
MOTION
Frames: 8
Frame Time: 0.033333
-0.866844 0.409275 1.021861 81.262434 -3.362348 84.212022 1.354707 2.455738 0.219040 -1.620124 1.762695 0.861352 -1.796775 1.298678 -4.200379 0.000000 -0.000000 0.000000 -0.862654 -7.174051 10.484765 -3.051165 -6.789378 5.285142 -12.835945 -11.799135 -17.089025 0.000000 -0.000000 0.000000 2.126441 3.594699 1.171606 -1.496870 -2.031317 8.907503 -3.411907 0.537631 -0.440722 1.044687 1.257686 3.377755 1.548269 -1.776320 3.932539 -26.654707 -0.248192 4.965515 -53.339164 -5.703116 9.321920 9.191864 -30.294911 10.966710 -29.545274 -13.059161 -12.586904 21.873418 1.109443 4.377568 62.548654 3.229977 6.544786 -21.237534 23.460047 -6.507764 33.423122 11.753033 -20.281624 
-0.866666 0.409885 1.022061 81.138183 -4.148743 84.221772 0.270000 1.734129 0.197931 -1.403645 0.850419 0.781794 -2.438748 2.801484 -4.477897 0.000000 -0.000000 0.000000 -2.363786 -7.541562 10.344056 -2.573056 -9.052559 4.257875 2.652600 -8.311447 -13.576650 0.000000 -0.000000 0.000000 1.628293 3.615516 1.562464 -2.053227 -2.100268 7.447168 -3.418990 0.900179 0.996057 1.131773 2.177109 1.773631 1.943637 -1.326175 5.571920 -26.444386 -0.140458 4.606187 -53.317986 -7.301111 9.970968 8.673047 -28.942435 8.773234 -20.418025 -14.782538 -10.154319 21.888034 0.763985 3.844019 62.842729 2.940136 8.054650 -20.497395 23.486409 -6.396092 28.691240 12.836070 -16.970972 
-0.866715 0.409479 1.022036 81.192822 -4.041364 84.232678 0.248532 1.550119 0.135170 -1.300177 0.381002 0.765872 -2.552412 3.300077 -4.366831 0.000000 -0.000000 0.000000 -2.178235 -7.675837 10.153772 -2.584720 -9.502401 4.150150 2.522607 -8.399748 -14.833735 0.000000 -0.000000 0.000000 1.717119 3.475415 2.066226 -2.093151 -2.157118 6.854172 -3.242018 0.974721 1.123732 0.884223 2.336037 1.495648 2.184671 -0.936187 5.834523 -26.272036 -0.043924 4.197152 -53.744999 -7.473137 10.172305 8.720834 -29.055966 8.530254 -16.872840 -15.174919 -9.561031 21.653147 0.649723 3.438492 62.990755 2.153805 8.335028 -19.816518 24.064750 -4.751085 26.451838 13.645079 -15.468710 
-0.866525 0.409014 1.022311 81.156486 -3.944871 84.156712 0.291927 1.610264 0.277917 -1.235080 0.269342 0.728995 -2.581098 3.290249 -4.346494 0.000000 -0.000000 0.000000 -2.097275 -7.755526 10.204339 -2.566665 -9.442179 4.084196 2.340977 -8.320384 -14.867410 0.000000 -0.000000 0.000000 1.843472 3.356458 2.332149 -2.092078 -2.238707 6.770988 -3.193447 0.996175 1.050190 0.830950 2.321573 1.502765 2.181348 -0.813080 5.765813 -26.207362 -0.175225 4.168952 -53.987063 -7.357550 10.251121 8.703411 -29.345377 8.871074 -16.745346 -15.011736 -9.755027 21.544963 0.715583 3.500643 63.157613 2.068488 8.281634 -19.705199 24.227385 -4.451873 26.381581 13.793082 -15.442846 
-0.866454 0.408703 1.022438 81.122030 -3.942929 84.138070 0.288614 1.660092 0.319958 -1.219661 0.274264 0.719128 -2.592352 3.259917 -4.361568 0.000000 -0.000000 0.000000 -2.110495 -7.778856 10.212731 -2.544115 -9.452101 4.067875 2.345953 -8.251691 -14.881737 0.000000 -0.000000 0.000000 1.867035 3.309054 2.397195 -2.111213 -2.297021 6.824442 -3.189361 1.005841 1.032168 0.815723 2.351429 1.440649 2.187099 -0.706070 5.751676 -26.194847 -0.290611 4.222289 -54.070616 -7.281099 10.261241 8.794710 -29.552206 8.881627 -16.767284 -14.881317 -9.715779 21.540990 0.780422 3.523529 63.275389 2.074783 8.239389 -19.698411 24.321665 -4.368332 26.619671 13.867948 -15.369159 
-0.866448 0.408170 1.022405 81.061167 -3.965651 84.189149 0.297600 1.713070 0.295247 -1.233014 0.261319 0.689452 -2.586489 3.258546 -4.353179 0.000000 -0.000000 0.000000 -2.092590 -7.721640 10.124307 -2.562685 -9.469014 4.112395 2.339665 -8.214061 -14.935680 0.000000 -0.000000 0.000000 1.827994 3.291075 2.457089 -2.097081 -2.298696 6.786732 -3.160811 0.968947 1.052429 0.829943 2.274524 1.276775 2.146113 -0.740104 5.610723 -26.182927 -0.331417 4.191457 -54.178212 -7.267169 10.290147 8.762321 -29.503167 8.979859 -16.901745 -14.702801 -9.630508 21.454872 0.802465 3.444504 63.553675 2.027889 8.306543 -19.704687 24.215296 -4.264455 26.969964 13.608114 -15.529326 
-0.866251 0.407593 1.022319 80.949677 -3.994652 84.252547 0.313876 1.735277 0.265390 -1.249990 0.282049 0.684006 -2.539991 3.320148 -4.324024 0.000000 -0.000000 0.000000 -2.065864 -7.582316 10.056939 -2.563220 -9.478732 4.154205 2.245381 -8.231014 -14.978376 0.000000 -0.000000 0.000000 1.788208 3.299846 2.387688 -2.083457 -2.267064 6.865660 -3.149925 0.963657 1.039930 0.844617 2.349456 1.430205 2.172861 -0.662245 5.475635 -26.169709 -0.383455 4.186073 -54.267793 -7.168412 10.361676 8.690750 -29.401527 9.110114 -17.354027 -14.250205 -9.778587 21.385167 0.878117 3.471121 63.821745 1.945057 8.423500 -19.764364 24.159994 -4.250001 27.523022 13.173604 -16.126032 
-0.865994 0.407006 1.022331 80.860578 -4.041598 84.311728 0.296046 1.713978 0.242636 -1.236176 0.367921 0.692461 -2.572813 3.336911 -4.353890 0.000000 -0.000000 0.000000 -2.056523 -7.393077 10.012897 -2.542725 -9.519544 4.163466 2.186940 -8.285226 -15.014263 0.000000 -0.000000 0.000000 1.774412 3.281776 2.364391 -2.078004 -2.241327 6.918853 -3.137792 0.970624 0.989378 0.853799 2.049596 1.247975 2.029228 -0.961311 5.244034 -26.197671 -0.380521 4.133728 -54.355311 -7.039569 10.401388 8.635375 -29.150082 9.110810 -17.554469 -14.207287 -9.823093 21.378147 0.968429 3.525733 63.973229 1.910589 8.472402 -19.753384 24.133719 -4.349724 27.676195 13.187566 -16.433152 
